# Blender 5.1.0
# www.blender.org
mtllib pedra004.mtl
o Esfera_icosaédrica
v -0.074657 -1.000000 -0.027765
v 0.678973 -0.070588 0.407732
v -1.107119 -0.265300 3.186786
v -1.113623 -1.027991 -0.143694
v 0.048182 -1.040455 -1.232224
v 0.823456 -0.703648 -1.274318
v -0.133854 0.943221 2.173585
v -1.072701 0.874556 2.167014
v -0.658322 0.019777 -0.228269
v 0.608134 0.195238 -1.467633
v 1.193813 0.575114 -0.569755
v 0.224239 1.666729 -0.366940
v -0.630024 -0.615206 1.516606
v 0.464046 -0.379935 0.325456
v -0.191177 -0.112367 1.649681
v 1.246016 -0.438910 -0.734248
v 0.820691 -0.763828 -1.043260
v -0.219017 -1.292059 -0.432484
v -1.654484 -0.266401 2.843343
v 0.072801 -1.270070 -1.054112
v -0.411360 -1.135051 -0.931764
v 0.628199 -0.767740 -1.385555
v 0.940945 0.385263 0.198300
v 1.283214 0.086826 -0.905387
v -0.660768 0.427546 3.054913
v -0.095528 0.486446 1.868514
v -1.272337 0.285510 1.853577
v -1.554080 0.259335 3.152362
v -0.166718 -0.525072 -1.158156
v -1.024760 -0.222918 0.401508
v 0.953116 -0.242003 -1.385560
v 0.324570 -0.593235 -1.381575
v 0.446402 0.897246 0.871377
v -0.601653 1.226200 2.789474
v -0.897784 0.291930 0.816708
v -0.024273 0.044648 -1.086554
v 0.756803 0.255480 -1.350441
v 0.386695 1.517383 0.133055
v 0.913804 1.096490 -0.439899
v -0.544679 1.341614 1.088941
v -0.463442 0.765424 -0.112058
v 0.386695 1.517383 -0.866935
vn 0.5758 -0.7204 0.3866
vn 0.6403 -0.5791 0.5047
vn 0.5102 -0.7734 0.3762
vn 0.6487 -0.7079 0.2795
vn 0.5343 -0.7954 0.2861
vn 0.8322 -0.2512 0.4943
vn 0.7939 -0.4296 0.4303
vn -0.9433 0.2380 -0.2315
vn -0.5300 -0.1000 -0.8421
vn 0.5472 -0.3382 -0.7656
vn 0.8203 -0.2311 0.5231
vn 0.0823 0.1349 0.9874
vn -0.9274 0.2745 -0.2542
vn -0.4186 -0.0442 -0.9071
vn 0.8679 -0.3327 -0.3689
vn 0.8053 0.4844 0.3417
vn -0.6247 0.7802 0.0320
vn -0.9160 0.2836 -0.2838
vn -0.5433 0.2701 -0.7949
vn 0.6564 0.4944 -0.5698
vn 0.6356 0.7717 -0.0240
vn 0.7495 0.4169 -0.5143
vn 0.4443 0.4312 -0.7853
vn -0.7802 0.4828 -0.3977
vn -0.7677 0.2988 -0.5669
vn -0.7738 0.2900 -0.5632
vn -0.7969 0.5219 -0.3043
vn -0.9010 0.3642 -0.2357
vn -0.8876 0.3698 -0.2745
vn 0.0850 0.9619 0.2597
vn -0.1221 0.9905 0.0631
vn 0.7754 0.5280 0.3464
vn 0.6385 0.7693 0.0223
vn 0.7883 0.5011 0.3571
vn 0.8560 0.3697 0.3613
vn 0.6449 0.5096 -0.5696
vn 0.6697 0.3119 -0.6740
vn 0.5282 0.2654 -0.8066
vn -0.5308 0.0990 -0.8417
vn -0.3808 0.2084 -0.9009
vn -0.7790 0.2661 -0.5678
vn -0.8344 0.4557 -0.3099
vn -0.8408 0.4500 -0.3009
vn -0.8426 0.4461 -0.3016
vn -0.6862 0.7185 0.1134
vn 0.0448 0.3121 0.9490
vn 0.8171 0.1265 0.5625
vn 0.8932 -0.1955 0.4049
vn 0.8453 0.1379 0.5162
vn 0.8620 0.3469 0.3696
vn 0.0676 -0.1323 -0.9889
vn -0.0097 0.0060 -0.9999
vn -0.1455 -0.2313 -0.9619
vn -0.8712 0.0477 -0.4885
vn -0.8522 0.1565 -0.4992
vn -0.6185 0.4863 -0.6172
vn -0.8961 0.4028 -0.1863
vn -0.9352 0.2944 -0.1969
vn -0.4935 -0.3688 0.7877
vn 0.8881 -0.2014 0.4131
vn 0.8706 -0.2855 0.4006
vn 0.7808 -0.3207 0.5362
vn 0.9518 -0.0352 0.3047
vn 0.9568 0.0266 0.2895
vn 0.8180 -0.2296 -0.5275
vn 0.4170 -0.8808 -0.2244
vn 0.5387 -0.7896 -0.2939
vn 0.0757 -0.6061 -0.7918
vn -0.3491 -0.5974 -0.7220
vn -0.3055 -0.9357 -0.1765
vn -0.3281 -0.9299 -0.1660
vn -0.2159 -0.9548 0.2044
vn 0.1392 -0.9260 0.3509
vn -0.1074 -0.9788 0.1744
vn 0.6758 -0.7152 -0.1782
vn 0.4003 -0.8499 0.3427
vn 0.5949 -0.7202 0.3570
vn 0.6661 -0.6687 0.3304
vn 0.6170 -0.6542 0.4375
vn 0.6722 -0.5870 0.4512
vt 0.961399 0.970378
vt 0.957935 0.964379
vt 0.964862 0.964379
vt 0.954472 0.958380
vt 0.951009 0.964379
vt 0.947545 0.958380
vt 0.905985 0.970378
vt 0.902522 0.964379
vt 0.909448 0.964379
vt 0.919838 0.970378
vt 0.916375 0.964379
vt 0.923302 0.964379
vt 0.933692 0.970378
vt 0.930229 0.964379
vt 0.937155 0.964379
vt 0.951009 0.952382
vt 0.968325 0.958380
vt 0.961399 0.958380
vt 0.964862 0.952382
vt 0.912912 0.958380
vt 0.905985 0.958380
vt 0.909448 0.952382
vt 0.926765 0.958380
vt 0.919838 0.958380
vt 0.923302 0.952382
vt 0.940619 0.958380
vt 0.933692 0.958380
vt 0.937155 0.952382
vt 0.957935 0.952382
vt 0.971789 0.952382
vt 0.916375 0.952382
vt 0.930229 0.952382
vt 0.944082 0.952382
vt 0.961399 0.946383
vt 0.954472 0.946383
vt 0.957935 0.940384
vt 0.975252 0.946383
vt 0.968326 0.946383
vt 0.971789 0.940384
vt 0.919838 0.946383
vt 0.912912 0.946383
vt 0.916375 0.940384
vt 0.933692 0.946383
vt 0.926765 0.946383
vt 0.930229 0.940384
vt 0.947545 0.946383
vt 0.940619 0.946383
vt 0.944082 0.940384
vt 0.937155 0.940384
vt 0.940619 0.934385
vt 0.923302 0.940384
vt 0.926765 0.934385
vt 0.909448 0.940384
vt 0.912912 0.934385
vt 0.905985 0.946383
vt 0.964862 0.940384
vt 0.968325 0.934385
vt 0.951009 0.940384
vt 0.954472 0.934385
vt 0.902522 0.952382
vt 0.899058 0.958380
vt 0.944082 0.964379
vt 0.947545 0.970378
s 0
usemtl Material.002
f 1/1/1 14/2/1 13/3/1
f 2/4/2 14/5/2 16/6/2
f 1/7/3 13/8/3 18/9/3
f 1/10/4 18/11/4 20/12/4
f 1/13/5 20/14/5 17/15/5
f 2/4/6 16/6/6 23/16/6
f 3/17/7 15/18/7 25/19/7
f 4/20/8 19/21/8 27/22/8
f 5/23/9 21/24/9 29/25/9
f 6/26/10 22/27/10 31/28/10
f 2/4/11 23/16/11 26/29/11
f 3/17/12 25/19/12 28/30/12
f 4/20/13 27/22/13 30/31/13
f 5/23/14 29/25/14 32/32/14
f 6/26/15 31/28/15 24/33/15
f 7/34/16 33/35/16 38/36/16
f 8/37/17 34/38/17 40/39/17
f 9/40/18 35/41/18 41/42/18
f 10/43/19 36/44/19 42/45/19
f 11/46/20 37/47/20 39/48/20
f 39/48/21 42/49/21 12/50/21
f 39/48/22 37/47/22 42/49/22
f 37/47/23 10/43/23 42/49/23
f 42/45/24 41/51/24 12/52/24
f 42/45/25 36/44/25 41/51/25
f 36/44/26 9/40/26 41/51/26
f 41/42/27 40/53/27 12/54/27
f 41/42/28 35/41/28 40/53/28
f 35/41/29 8/55/29 40/53/29
f 40/39/30 38/56/30 12/57/30
f 40/39/31 34/38/31 38/56/31
f 34/38/32 7/34/32 38/56/32
f 38/36/33 39/58/33 12/59/33
f 38/36/34 33/35/34 39/58/34
f 33/35/35 11/46/35 39/58/35
f 24/33/36 37/47/36 11/46/36
f 24/33/37 31/28/37 37/47/37
f 31/28/38 10/43/38 37/47/38
f 32/32/39 36/44/39 10/43/39
f 32/32/40 29/25/40 36/44/40
f 29/25/41 9/40/41 36/44/41
f 30/31/42 35/41/42 9/40/42
f 30/31/43 27/22/43 35/41/43
f 27/22/44 8/55/44 35/41/44
f 28/30/45 34/38/45 8/37/45
f 28/30/46 25/19/46 34/38/46
f 25/19/47 7/34/47 34/38/47
f 26/29/48 33/35/48 7/34/48
f 26/29/49 23/16/49 33/35/49
f 23/16/50 11/46/50 33/35/50
f 31/28/51 32/32/51 10/43/51
f 31/28/52 22/27/52 32/32/52
f 22/27/53 5/23/53 32/32/53
f 29/25/54 30/31/54 9/40/54
f 29/25/55 21/24/55 30/31/55
f 21/24/56 4/20/56 30/31/56
f 27/22/57 28/60/57 8/55/57
f 27/22/58 19/21/58 28/60/58
f 19/21/59 3/61/59 28/60/59
f 25/19/60 26/29/60 7/34/60
f 25/19/61 15/18/61 26/29/61
f 15/18/62 2/4/62 26/29/62
f 23/16/63 24/33/63 11/46/63
f 23/16/64 16/6/64 24/33/64
f 16/6/65 6/26/65 24/33/65
f 17/15/66 22/27/66 6/26/66
f 17/15/67 20/14/67 22/27/67
f 20/14/68 5/23/68 22/27/68
f 20/12/69 21/24/69 5/23/69
f 20/12/70 18/11/70 21/24/70
f 18/11/71 4/20/71 21/24/71
f 18/9/72 19/21/72 4/20/72
f 18/9/73 13/8/73 19/21/73
f 13/8/74 3/61/74 19/21/74
f 16/6/75 17/62/75 6/26/75
f 16/6/76 14/5/76 17/62/76
f 14/5/77 1/63/77 17/62/77
f 13/3/78 15/18/78 3/17/78
f 13/3/79 14/2/79 15/18/79
f 14/2/80 2/4/80 15/18/80
