# Blender 5.1.0
# www.blender.org
mtllib pedra001.mtl
o Esfera_icosaédrica.001
v 0.167769 -1.293883 5.008677
v -1.855138 -0.274766 6.446006
v -0.966653 -0.708262 2.410651
v 1.779170 -1.142776 2.961540
v 2.661567 -1.377539 5.849440
v 1.301258 -1.380901 8.041822
v -1.376770 0.452519 5.126348
v 0.340762 0.364663 2.552054
v 2.947162 -0.136912 4.482221
v 2.043362 -0.014610 7.292801
v -0.104287 0.236334 8.057499
v 1.340129 0.555442 5.038517
v -0.816754 -0.925760 3.421762
v -1.652887 -0.951523 5.994471
v -1.778358 -0.349891 3.880656
v -0.060398 -1.072079 8.146255
v 0.901198 -1.647951 7.687355
v 1.707616 -1.455737 4.626165
v 0.041985 -0.809237 2.064833
v 2.176488 -1.558865 5.738108
v 2.495087 -1.428977 4.792664
v 2.159433 -1.432806 7.092505
v -1.418927 0.227648 7.098370
v 0.169389 -0.066185 8.484856
v -1.513930 0.122559 2.807337
v -1.961359 0.152209 4.469076
v 1.251588 0.116404 1.494843
v -0.805657 0.186619 2.392010
v 2.923391 -1.102230 5.698044
v 2.839423 -1.019099 4.487618
v 1.879650 -0.670271 8.086718
v 2.646471 -1.225429 6.870666
v -1.464116 0.406747 6.140941
v -1.057606 0.531792 4.475682
v 2.503732 0.078299 3.540387
v 2.784192 -0.374835 5.593290
v 1.265101 0.235563 7.915421
v -0.226175 0.473404 5.412616
v -0.305315 0.453640 7.085813
v 0.544179 0.383607 3.992984
v 2.232056 0.389915 4.616921
v 1.819620 0.470817 5.921079
vn -0.2278 -0.9701 -0.0837
vn -0.6950 -0.5311 0.4846
vn -0.1382 -0.9802 -0.1416
vn -0.1151 -0.9924 -0.0435
vn -0.0923 -0.9901 -0.1056
vn -0.7209 -0.2251 0.6554
vn -0.8463 -0.3784 -0.3750
vn 0.2162 -0.7010 -0.6796
vn 0.7013 -0.7088 -0.0760
vn 0.6120 -0.5349 0.5825
vn -0.8379 0.5225 0.1579
vn -0.5094 0.0738 -0.8573
vn 0.7980 -0.2846 -0.5313
vn 0.7494 -0.6531 0.1084
vn 0.1584 -0.1901 0.9689
vn -0.0287 0.9987 0.0426
vn 0.0846 0.9961 -0.0250
vn 0.5800 0.8098 -0.0880
vn 0.6796 0.7194 0.1437
vn 0.0227 0.9766 0.2137
vn 0.0341 0.9964 0.0770
vn 0.0660 0.9886 0.1350
vn 0.4591 0.8584 0.2289
vn 0.1807 0.9835 -0.0039
vn 0.6818 0.7112 0.1715
vn 0.6044 0.7563 0.2506
vn 0.0772 0.9728 -0.2186
vn 0.0909 0.9625 -0.2557
vn 0.1463 0.9887 -0.0336
vn -0.0769 0.9916 -0.1044
vn 0.0875 0.9960 -0.0155
vn -0.0429 0.9941 0.1000
vn -0.0501 0.9987 0.0094
vn -0.0482 0.9988 0.0095
vn -0.2500 0.9326 0.2603
vn 0.0577 0.8319 0.5519
vn 0.3374 0.3909 0.8564
vn 0.6265 0.5326 0.5691
vn 0.8884 0.3320 0.3169
vn 0.9449 0.2162 0.2459
vn 0.9598 0.2104 0.1858
vn 0.8891 -0.1113 -0.4440
vn 0.8359 -0.1890 -0.5152
vn 0.1689 0.9820 -0.0851
vn -0.1269 0.9760 -0.1770
vn -0.1946 0.9636 -0.1832
vn -0.4308 0.8966 -0.1021
vn -0.4576 0.8892 0.0007
vn -0.7960 0.5870 0.1474
vn -0.1440 0.9715 0.1885
vn 0.8640 0.2859 0.4143
vn 0.5290 -0.5949 0.6052
vn 0.4408 -0.8869 0.1386
vn 0.9896 -0.1213 -0.0770
vn 0.7253 -0.6816 -0.0971
vn 0.5785 -0.7405 -0.3419
vn -0.1033 0.9448 -0.3109
vn -0.4006 -0.0402 -0.9154
vn -0.3207 0.0380 -0.9464
vn -0.3521 0.9293 -0.1114
vn -0.9647 -0.0482 -0.2589
vn -0.9463 -0.3228 -0.0189
vn -0.5070 0.5164 0.6902
vn -0.6647 -0.0975 0.7408
vn 0.0003 -0.3191 0.9477
vn 0.3072 -0.8938 0.3266
vn 0.2105 -0.9731 0.0932
vn 0.3302 -0.9395 0.0916
vn 0.3521 -0.9359 -0.0099
vn 0.0583 -0.9915 -0.1166
vn 0.0717 -0.9808 -0.1813
vn -0.0908 -0.9780 -0.1878
vn -0.1270 -0.9782 -0.1643
vn -0.1604 -0.9696 -0.1848
vn -0.1132 -0.7279 0.6762
vn -0.4062 -0.8785 0.2514
vn -0.2200 -0.9731 -0.0684
vn -0.5454 -0.8324 -0.0982
vn -0.5704 -0.7983 -0.1934
vn -0.9616 -0.2735 -0.0208
vt 0.904298 0.929624
vt 0.908549 0.936987
vt 0.900047 0.936987
vt 0.912800 0.944350
vt 0.917051 0.936987
vt 0.921302 0.944350
vt 0.972314 0.929624
vt 0.976565 0.936987
vt 0.968063 0.936987
vt 0.955310 0.929624
vt 0.959561 0.936987
vt 0.951059 0.936987
vt 0.938306 0.929624
vt 0.942557 0.936987
vt 0.934055 0.936987
vt 0.917051 0.951713
vt 0.895796 0.944350
vt 0.904298 0.944350
vt 0.900047 0.951713
vt 0.963812 0.944350
vt 0.972314 0.944350
vt 0.968063 0.951713
vt 0.946808 0.944350
vt 0.955310 0.944350
vt 0.951059 0.951713
vt 0.929804 0.944350
vt 0.938306 0.944350
vt 0.934055 0.951713
vt 0.908549 0.951713
vt 0.891545 0.951713
vt 0.959561 0.951713
vt 0.942557 0.951713
vt 0.925553 0.951713
vt 0.904298 0.959076
vt 0.912800 0.959076
vt 0.908549 0.966439
vt 0.887294 0.959076
vt 0.895796 0.959076
vt 0.891545 0.966439
vt 0.955310 0.959076
vt 0.963812 0.959076
vt 0.959561 0.966439
vt 0.938306 0.959076
vt 0.946808 0.959076
vt 0.945521 0.966439
vt 0.921302 0.959076
vt 0.929804 0.959076
vt 0.925553 0.966439
vt 0.935144 0.966575
vt 0.931576 0.972410
vt 0.951059 0.966439
vt 0.948290 0.971235
vt 0.968063 0.966439
vt 0.962330 0.971235
vt 0.972314 0.959076
vt 0.900047 0.966439
vt 0.891766 0.974984
vt 0.917051 0.966439
vt 0.913213 0.975263
vt 0.976565 0.951713
vt 0.980816 0.944350
vt 0.925553 0.936987
vt 0.921302 0.929624
s 0
usemtl Material.001
f 1/1/1 14/2/1 13/3/1
f 2/4/2 14/5/2 16/6/2
f 1/7/3 13/8/3 18/9/3
f 1/10/4 18/11/4 20/12/4
f 1/13/5 20/14/5 17/15/5
f 2/4/6 16/6/6 23/16/6
f 3/17/7 15/18/7 25/19/7
f 4/20/8 19/21/8 27/22/8
f 5/23/9 21/24/9 29/25/9
f 6/26/10 22/27/10 31/28/10
f 2/4/11 23/16/11 26/29/11
f 3/17/12 25/19/12 28/30/12
f 4/20/13 27/22/13 30/31/13
f 5/23/14 29/25/14 32/32/14
f 6/26/15 31/28/15 24/33/15
f 7/34/16 33/35/16 38/36/16
f 8/37/17 34/38/17 40/39/17
f 9/40/18 35/41/18 41/42/18
f 10/43/19 36/44/19 42/45/19
f 11/46/20 37/47/20 39/48/20
f 39/48/21 42/49/21 12/50/21
f 39/48/22 37/47/22 42/49/22
f 37/47/23 10/43/23 42/49/23
f 42/45/24 41/51/24 12/52/24
f 42/45/25 36/44/25 41/51/25
f 36/44/26 9/40/26 41/51/26
f 41/42/27 40/53/27 12/54/27
f 41/42/28 35/41/28 40/53/28
f 35/41/29 8/55/29 40/53/29
f 40/39/30 38/56/30 12/57/30
f 40/39/31 34/38/31 38/56/31
f 34/38/32 7/34/32 38/56/32
f 38/36/33 39/58/33 12/59/33
f 38/36/34 33/35/34 39/58/34
f 33/35/35 11/46/35 39/58/35
f 24/33/36 37/47/36 11/46/36
f 24/33/37 31/28/37 37/47/37
f 31/28/38 10/43/38 37/47/38
f 32/32/39 36/44/39 10/43/39
f 32/32/40 29/25/40 36/44/40
f 29/25/41 9/40/41 36/44/41
f 30/31/42 35/41/42 9/40/42
f 30/31/43 27/22/43 35/41/43
f 27/22/44 8/55/44 35/41/44
f 28/30/45 34/38/45 8/37/45
f 28/30/46 25/19/46 34/38/46
f 25/19/47 7/34/47 34/38/47
f 26/29/48 33/35/48 7/34/48
f 26/29/49 23/16/49 33/35/49
f 23/16/50 11/46/50 33/35/50
f 31/28/51 32/32/51 10/43/51
f 31/28/52 22/27/52 32/32/52
f 22/27/53 5/23/53 32/32/53
f 29/25/54 30/31/54 9/40/54
f 29/25/55 21/24/55 30/31/55
f 21/24/56 4/20/56 30/31/56
f 27/22/57 28/60/57 8/55/57
f 27/22/58 19/21/58 28/60/58
f 19/21/59 3/61/59 28/60/59
f 25/19/60 26/29/60 7/34/60
f 25/19/61 15/18/61 26/29/61
f 15/18/62 2/4/62 26/29/62
f 23/16/63 24/33/63 11/46/63
f 23/16/64 16/6/64 24/33/64
f 16/6/65 6/26/65 24/33/65
f 17/15/66 22/27/66 6/26/66
f 17/15/67 20/14/67 22/27/67
f 20/14/68 5/23/68 22/27/68
f 20/12/69 21/24/69 5/23/69
f 20/12/70 18/11/70 21/24/70
f 18/11/71 4/20/71 21/24/71
f 18/9/72 19/21/72 4/20/72
f 18/9/73 13/8/73 19/21/73
f 13/8/74 3/61/74 19/21/74
f 16/6/75 17/62/75 6/26/75
f 16/6/76 14/5/76 17/62/76
f 14/5/77 1/63/77 17/62/77
f 13/3/78 15/18/78 3/17/78
f 13/3/79 14/2/79 15/18/79
f 14/2/80 2/4/80 15/18/80
