# Blender 4.2.7 LTS
# www.blender.org
mtllib untitled.mtl
o Cube
v 0.985614 1.000000 -1.014182
v 0.985614 -1.000000 -1.014182
v 1.042862 1.028278 1.013485
v 1.014182 -1.000000 0.985614
v -1.014182 1.000000 -0.985614
v -1.014182 -1.000000 -0.985614
v -0.985614 1.000000 1.014182
v -0.985614 -1.000000 1.014182
vn -0.0071 1.0000 -0.0069
vn 0.0073 -0.0070 0.9999
vn -0.9999 -0.0000 0.0143
vn -0.0000 -1.0000 -0.0000
vn 0.9997 -0.0070 -0.0213
vn -0.0143 -0.0000 -0.9999
vt 0.625000 0.500000
vt 0.875000 0.500000
vt 0.875000 0.750000
vt 0.625000 0.750000
vt 0.375000 0.750000
vt 0.625000 1.000000
vt 0.375000 1.000000
vt 0.375000 0.000000
vt 0.625000 0.000000
vt 0.625000 0.250000
vt 0.375000 0.250000
vt 0.125000 0.500000
vt 0.375000 0.500000
vt 0.125000 0.750000
s 0
usemtl Material
f 1/1/1 5/2/1 7/3/1 3/4/1
f 4/5/2 3/4/2 7/6/2 8/7/2
f 8/8/3 7/9/3 5/10/3 6/11/3
f 6/12/4 2/13/4 4/5/4 8/14/4
f 2/13/5 1/1/5 3/4/5 4/5/5
f 6/11/6 5/10/6 1/1/6 2/13/6
